<svg id="svg" version="1.1" width="500" height="500" xmlns="http://www.w3.org/2000/svg" xmlns:xlink="http://www.w3.org/1999/xlink" style="display: block;"><g id="svgg"><path id="path0" d="M104.994 18.600 C 104.133 19.675,96.000 36.434,96.000 37.135 C 96.000 37.367,95.140 39.456,94.090 41.778 C 85.293 61.220,81.298 80.740,81.274 104.400 C 81.253 124.166,83.836 137.301,90.395 150.791 C 94.093 158.394,95.176 159.566,97.762 158.757 C 101.674 157.534,126.400 129.878,126.400 126.725 C 126.400 126.485,127.471 124.731,128.781 122.828 C 131.763 118.494,138.390 104.859,138.396 103.047 C 138.398 102.303,138.760 101.472,139.200 101.200 C 140.801 100.211,140.076 93.689,138.000 90.400 C 136.900 88.657,136.000 87.055,136.000 86.838 C 136.000 86.622,134.344 82.925,132.319 78.622 C 127.138 67.613,126.796 66.777,119.952 48.400 C 117.657 42.240,115.469 36.858,115.090 36.440 C 114.710 36.022,114.389 34.942,114.375 34.040 C 114.361 33.138,113.821 31.701,113.175 30.847 C 112.529 29.993,112.000 28.484,112.000 27.494 C 112.000 26.504,111.640 25.472,111.200 25.200 C 110.760 24.928,110.400 23.907,110.400 22.931 C 110.400 19.166,106.832 16.307,104.994 18.600 M285.400 21.011 C 284.630 22.884,284.000 24.971,284.000 25.648 C 284.000 26.326,283.700 27.222,283.334 27.640 C 282.968 28.058,281.132 32.540,279.254 37.600 C 277.376 42.660,275.377 47.880,274.812 49.200 C 274.246 50.520,273.328 53.040,272.770 54.800 C 272.213 56.560,270.911 59.900,269.878 62.222 C 268.845 64.544,268.000 66.680,268.000 66.969 C 268.000 67.258,267.311 68.959,266.469 70.747 C 265.627 72.536,264.144 75.800,263.173 78.000 C 262.203 80.200,259.984 84.872,258.241 88.382 C 254.845 95.223,254.568 99.576,257.262 103.772 C 257.888 104.746,258.400 105.966,258.400 106.483 C 258.400 107.572,264.052 119.069,266.639 123.241 C 278.330 142.097,297.167 161.611,300.455 158.272 C 302.103 156.598,307.545 144.917,309.154 139.600 C 309.953 136.960,310.921 133.973,311.304 132.962 C 311.687 131.952,312.000 129.899,312.000 128.401 C 312.000 126.904,312.540 123.605,313.200 121.071 C 314.601 115.693,314.843 93.515,313.557 88.400 C 313.115 86.640,312.430 82.680,312.036 79.600 C 310.848 70.326,309.920 66.626,305.815 54.800 C 303.544 48.255,302.663 46.027,301.126 42.935 C 300.507 41.690,300.000 40.193,300.000 39.609 C 300.000 38.557,298.460 35.218,292.987 24.400 C 288.916 16.354,287.563 15.750,285.400 21.011 M182.800 77.965 C 175.260 79.339,163.432 83.480,156.488 87.178 C 150.534 90.349,149.186 92.041,147.229 98.800 C 146.357 101.811,145.333 104.583,142.646 111.200 C 140.876 115.559,136.820 123.252,134.294 127.040 C 133.032 128.932,132.000 130.657,132.000 130.874 C 132.000 131.090,131.630 131.702,131.177 132.234 C 130.724 132.765,128.834 135.424,126.977 138.142 C 122.169 145.178,108.570 159.512,102.792 163.636 C 97.487 167.421,96.000 169.710,96.000 174.090 C 96.000 175.638,95.657 177.547,95.237 178.331 C 94.818 179.115,94.065 182.061,93.565 184.878 C 93.064 187.695,92.386 191.524,92.056 193.386 C 91.553 196.234,90.389 197.826,84.729 203.413 C 81.028 207.066,77.640 210.583,77.200 211.228 C 76.760 211.874,75.480 213.661,74.355 215.201 C 71.930 218.521,68.000 226.728,68.000 228.474 C 68.000 229.151,67.643 230.373,67.206 231.189 C 65.426 234.516,63.882 249.119,64.971 252.326 C 66.327 256.317,67.477 256.344,68.130 252.400 C 68.761 248.597,72.594 237.523,73.655 236.440 C 74.065 236.022,74.400 235.195,74.400 234.602 C 74.400 234.008,75.660 231.553,77.200 229.146 C 78.740 226.739,80.000 224.442,80.000 224.043 C 80.000 220.298,94.960 210.038,101.775 209.109 C 109.514 208.054,128.000 217.971,128.000 223.179 C 128.000 223.630,128.308 224.000,128.685 224.000 C 131.654 224.000,139.404 246.241,140.532 258.000 C 143.494 288.868,137.776 310.956,122.944 325.941 C 118.184 330.751,116.762 332.683,117.057 333.941 C 117.272 334.854,118.224 338.120,119.173 341.200 C 122.659 352.513,123.324 354.873,124.017 358.400 C 125.768 367.301,126.620 370.898,127.285 372.189 C 127.678 372.953,128.005 374.573,128.011 375.789 C 128.017 377.005,128.668 380.160,129.458 382.800 L 130.895 387.600 161.198 387.810 C 177.864 387.925,191.813 387.707,192.194 387.326 C 193.271 386.249,192.960 79.157,191.881 77.856 C 190.849 76.613,190.177 76.621,182.800 77.965 M203.400 77.321 C 202.605 77.649,202.400 109.513,202.400 232.867 L 202.400 388.000 233.065 388.000 L 263.730 388.000 264.637 386.200 C 265.523 384.443,266.708 379.255,267.880 371.996 C 268.201 370.014,268.752 367.924,269.107 367.351 C 269.461 366.778,270.062 364.440,270.443 362.155 C 271.669 354.796,272.543 350.846,273.398 348.800 C 273.857 347.700,274.665 345.180,275.194 343.200 C 275.722 341.220,276.659 338.418,277.277 336.973 C 278.955 333.047,278.831 332.757,273.093 327.169 C 257.844 312.319,252.738 294.855,254.506 263.600 C 255.189 251.534,256.088 245.112,257.440 242.653 C 257.968 241.692,258.400 240.293,258.400 239.546 C 258.400 237.517,263.723 227.386,267.295 222.615 C 272.493 215.674,279.576 211.324,289.090 209.229 C 302.038 206.377,317.137 221.686,324.498 245.125 C 327.622 255.076,328.852 257.578,329.645 255.600 C 330.794 252.737,330.492 240.169,329.200 237.077 C 328.540 235.497,328.000 233.164,328.000 231.891 C 328.000 230.619,327.684 228.953,327.298 228.189 C 326.911 227.425,325.977 225.360,325.220 223.600 C 322.700 217.735,316.553 209.378,309.899 202.768 C 304.482 197.387,303.233 195.677,302.849 193.114 C 302.592 191.401,301.973 188.380,301.474 186.400 C 300.975 184.420,300.284 181.000,299.939 178.800 C 298.440 169.243,296.054 164.000,293.201 164.000 C 291.207 164.000,273.837 145.842,268.544 138.225 C 261.639 128.287,256.000 119.439,256.000 118.544 C 256.000 118.106,255.057 115.824,253.905 113.474 C 250.960 107.467,250.713 106.850,248.077 98.879 C 245.694 91.670,242.982 88.095,239.847 88.029 C 239.103 88.013,238.278 87.650,238.013 87.221 C 237.364 86.172,230.314 83.101,224.000 81.118 C 216.634 78.805,215.520 78.517,212.000 78.021 C 210.020 77.743,207.500 77.378,206.400 77.212 C 205.300 77.045,203.950 77.095,203.400 77.321 " stroke="none" fill="#ff7032" fill-rule="evenodd"></path></g></svg>