<svg id="svg" version="1.1" width="500" height="500" xmlns="http://www.w3.org/2000/svg" xmlns:xlink="http://www.w3.org/1999/xlink" style="display: block;"><g id="svgg"><path id="path0" d="M105.244 18.870 C 103.744 20.370,96.000 36.226,96.000 37.797 C 96.000 38.393,95.660 39.222,95.244 39.640 C 94.406 40.482,88.944 54.223,87.945 58.000 C 87.597 59.320,86.725 62.380,86.008 64.800 C 83.238 74.157,81.301 90.617,81.303 104.800 C 81.304 114.344,81.674 118.585,83.641 131.600 C 83.907 133.360,84.637 135.934,85.262 137.321 C 85.888 138.707,86.400 140.422,86.400 141.132 C 86.400 141.841,86.730 143.047,87.132 143.811 C 87.535 144.575,89.206 147.988,90.846 151.396 C 94.236 158.442,95.243 159.548,97.589 158.803 C 101.543 157.549,126.400 129.940,126.400 126.804 C 126.400 126.540,127.595 124.450,129.054 122.162 C 138.005 108.130,141.745 95.922,138.503 91.323 C 137.680 90.156,136.104 87.220,135.001 84.800 C 133.898 82.380,131.843 77.880,130.434 74.800 C 129.024 71.720,127.507 68.300,127.062 67.200 C 126.616 66.100,125.745 64.181,125.126 62.935 C 124.507 61.690,124.000 60.155,124.000 59.524 C 124.000 58.894,123.677 57.753,123.282 56.989 C 122.492 55.460,121.242 52.249,117.916 43.200 C 116.703 39.900,115.416 36.858,115.055 36.440 C 114.695 36.022,114.389 34.942,114.375 34.040 C 114.361 33.138,113.821 31.701,113.175 30.847 C 112.529 29.993,112.000 28.484,112.000 27.494 C 112.000 26.504,111.640 25.472,111.200 25.200 C 110.760 24.928,110.400 23.907,110.400 22.931 C 110.400 19.006,107.439 16.675,105.244 18.870 M285.400 21.011 C 284.630 22.884,284.000 24.971,284.000 25.648 C 284.000 26.326,283.703 27.222,283.341 27.640 C 282.978 28.058,281.154 32.540,279.287 37.600 C 275.440 48.024,275.123 48.842,273.311 53.027 C 272.590 54.692,272.000 56.587,272.000 57.238 C 272.000 58.432,271.765 59.017,269.335 63.865 C 268.601 65.330,268.000 66.824,268.000 67.183 C 268.000 67.829,261.033 82.959,257.060 90.940 C 254.858 95.363,254.881 98.574,257.149 103.600 C 257.744 104.920,258.587 106.900,259.021 108.000 C 267.013 128.256,295.575 162.939,300.340 158.174 C 302.080 156.434,307.398 145.189,309.125 139.600 C 309.940 136.960,310.921 133.973,311.304 132.962 C 311.687 131.952,312.004 129.612,312.009 127.762 C 312.013 125.913,312.553 122.633,313.209 120.473 C 314.817 115.171,314.822 94.250,313.216 87.600 C 312.579 84.960,312.044 80.931,312.028 78.647 C 312.013 76.363,311.640 74.272,311.200 74.000 C 310.760 73.728,310.400 72.442,310.400 71.142 C 310.400 69.842,308.957 64.373,307.193 58.989 C 303.981 49.184,303.158 47.036,301.103 43.077 C 300.496 41.909,300.000 40.199,300.000 39.277 C 300.000 38.354,299.640 37.600,299.200 37.600 C 298.760 37.600,298.400 37.026,298.400 36.323 C 298.400 35.621,297.902 34.091,297.294 32.923 C 296.685 31.756,295.189 28.820,293.968 26.400 C 289.082 16.716,287.560 15.758,285.400 21.011 M187.200 77.382 C 182.967 77.923,173.023 80.376,169.200 81.822 C 167.000 82.654,164.495 83.546,163.633 83.805 C 154.213 86.627,149.243 91.511,146.744 100.400 C 146.002 103.040,145.081 105.542,144.697 105.960 C 144.314 106.378,144.000 107.193,144.000 107.772 C 144.000 109.424,137.003 123.480,134.373 127.110 C 133.068 128.912,132.000 130.565,132.000 130.784 C 132.000 133.936,110.700 158.008,102.963 163.600 C 97.587 167.485,96.655 168.852,95.873 174.000 C 95.539 176.200,94.690 180.700,93.986 184.000 C 93.282 187.300,92.433 191.440,92.100 193.200 C 91.324 197.287,90.055 199.258,86.726 201.538 C 85.256 202.545,82.822 204.861,81.315 206.685 C 79.809 208.508,77.637 211.080,76.489 212.400 C 75.341 213.720,74.402 215.044,74.401 215.343 C 74.400 215.641,73.937 216.361,73.371 216.943 C 71.742 218.617,68.000 227.060,68.000 229.062 C 68.000 230.062,67.677 231.222,67.282 231.640 C 65.695 233.320,63.963 248.569,65.010 251.645 C 66.232 255.237,67.436 255.311,68.114 251.835 C 68.571 249.489,69.108 247.791,71.224 242.000 C 72.763 237.788,74.876 232.972,76.138 230.800 C 76.905 229.480,78.126 227.236,78.851 225.813 C 80.975 221.646,88.950 214.011,93.637 211.657 C 114.133 201.362,137.464 224.030,140.510 257.200 C 142.189 275.483,140.437 297.394,136.753 304.189 C 136.339 304.953,136.000 306.064,136.000 306.657 C 136.000 309.116,127.496 321.560,122.330 326.660 C 116.090 332.821,116.274 332.284,118.319 338.318 C 119.154 340.783,120.271 344.420,120.802 346.400 C 121.332 348.380,122.268 351.452,122.883 353.227 C 123.497 355.001,124.000 357.539,124.000 358.867 C 124.000 360.194,124.341 361.622,124.758 362.040 C 125.175 362.458,125.914 364.960,126.399 367.600 C 128.261 377.737,128.673 379.721,129.720 383.600 L 130.800 387.600 161.600 387.600 L 192.400 387.600 192.400 232.892 C 192.400 59.610,192.970 76.644,187.200 77.382 M203.400 77.321 C 202.605 77.649,202.400 109.513,202.400 232.867 L 202.400 388.000 232.782 388.000 L 263.163 388.000 264.323 386.200 C 265.492 384.386,266.816 378.974,267.895 371.600 C 268.216 369.400,268.912 366.814,269.440 365.853 C 269.968 364.892,270.400 362.663,270.400 360.900 C 270.400 359.137,270.760 357.472,271.200 357.200 C 271.640 356.928,272.002 355.557,272.005 354.153 C 272.008 352.749,272.548 350.569,273.205 349.309 C 273.862 348.048,274.400 346.455,274.400 345.769 C 274.400 345.082,275.331 341.824,276.468 338.529 L 278.536 332.537 272.468 326.586 C 269.131 323.312,266.400 320.337,266.400 319.974 C 266.400 319.611,265.950 318.839,265.399 318.257 C 263.735 316.499,259.300 307.920,257.615 303.200 C 253.232 290.921,253.115 250.523,257.440 242.653 C 257.968 241.692,258.400 240.188,258.400 239.311 C 258.400 238.434,259.589 235.440,261.043 232.658 C 277.386 201.381,305.287 201.258,319.545 232.400 C 320.351 234.160,321.683 237.018,322.505 238.750 C 323.327 240.483,324.000 242.532,324.000 243.303 C 324.000 244.074,324.313 244.899,324.695 245.135 C 325.077 245.371,325.624 247.028,325.910 248.817 C 326.344 251.533,327.170 253.697,328.643 255.977 C 330.544 258.918,331.056 241.519,329.200 237.077 C 328.540 235.497,328.000 233.433,328.000 232.491 C 328.000 228.620,322.245 216.530,318.728 213.014 C 318.108 212.393,317.600 211.570,317.600 211.184 C 317.600 210.799,314.592 207.494,310.915 203.842 C 303.340 196.315,302.400 194.876,302.400 190.800 C 302.400 189.202,301.985 187.120,301.479 186.173 C 300.972 185.226,300.277 182.280,299.934 179.626 C 298.478 168.346,298.095 167.538,292.339 163.600 C 282.781 157.061,256.000 123.794,256.000 118.460 C 256.000 118.068,255.057 115.824,253.905 113.474 C 252.752 111.123,251.542 108.480,251.215 107.600 C 250.889 106.720,250.085 104.740,249.428 103.200 C 248.772 101.660,247.751 98.499,247.160 96.175 C 246.105 92.029,242.535 88.000,239.916 88.000 C 239.372 88.000,238.358 87.526,237.663 86.947 C 236.284 85.797,227.886 82.295,222.800 80.749 C 221.040 80.214,218.700 79.489,217.600 79.137 C 216.500 78.785,213.980 78.276,212.000 78.006 C 210.020 77.736,207.500 77.378,206.400 77.212 C 205.300 77.045,203.950 77.095,203.400 77.321 " stroke="none" fill="#ffffff" fill-rule="evenodd"></path><path id="path1" d="M0.000 200.000 L 0.000 400.000 200.000 400.000 L 400.000 400.000 400.000 200.000 L 400.000 0.000 200.000 0.000 L 0.000 0.000 0.000 200.000 M109.155 19.378 C 109.840 20.356,110.400 21.955,110.400 22.931 C 110.400 23.907,110.760 24.928,111.200 25.200 C 111.640 25.472,112.000 26.504,112.000 27.494 C 112.000 28.484,112.529 29.993,113.175 30.847 C 113.821 31.701,114.361 33.138,114.375 34.040 C 114.389 34.942,114.695 36.022,115.055 36.440 C 115.416 36.858,116.703 39.900,117.916 43.200 C 121.242 52.249,122.492 55.460,123.282 56.989 C 123.677 57.753,124.000 58.894,124.000 59.524 C 124.000 60.155,124.507 61.690,125.126 62.935 C 125.745 64.181,126.616 66.100,127.062 67.200 C 127.507 68.300,129.024 71.720,130.434 74.800 C 131.843 77.880,133.898 82.380,135.001 84.800 C 136.104 87.220,137.680 90.156,138.503 91.323 C 141.745 95.922,138.005 108.130,129.054 122.162 C 127.595 124.450,126.400 126.540,126.400 126.804 C 126.400 129.940,101.543 157.549,97.589 158.803 C 95.243 159.548,94.236 158.442,90.846 151.396 C 89.206 147.988,87.535 144.575,87.132 143.811 C 86.730 143.047,86.400 141.841,86.400 141.132 C 86.400 140.422,85.888 138.707,85.262 137.321 C 84.637 135.934,83.907 133.360,83.641 131.600 C 81.674 118.585,81.304 114.344,81.303 104.800 C 81.301 90.617,83.238 74.157,86.008 64.800 C 86.725 62.380,87.597 59.320,87.945 58.000 C 88.944 54.223,94.406 40.482,95.244 39.640 C 95.660 39.222,96.000 38.393,96.000 37.797 C 96.000 36.226,103.744 20.370,105.244 18.870 C 106.943 17.172,107.676 17.267,109.155 19.378 M290.220 19.800 C 291.060 21.010,292.747 23.980,293.968 26.400 C 295.189 28.820,296.685 31.756,297.294 32.923 C 297.902 34.091,298.400 35.621,298.400 36.323 C 298.400 37.026,298.760 37.600,299.200 37.600 C 299.640 37.600,300.000 38.354,300.000 39.277 C 300.000 40.199,300.496 41.909,301.103 43.077 C 303.158 47.036,303.981 49.184,307.193 58.989 C 308.957 64.373,310.400 69.842,310.400 71.142 C 310.400 72.442,310.760 73.728,311.200 74.000 C 311.640 74.272,312.013 76.363,312.028 78.647 C 312.044 80.931,312.579 84.960,313.216 87.600 C 314.822 94.250,314.817 115.171,313.209 120.473 C 312.553 122.633,312.013 125.913,312.009 127.762 C 312.004 129.612,311.687 131.952,311.304 132.962 C 310.921 133.973,309.940 136.960,309.125 139.600 C 307.398 145.189,302.080 156.434,300.340 158.174 C 295.575 162.939,267.013 128.256,259.021 108.000 C 258.587 106.900,257.744 104.920,257.149 103.600 C 254.881 98.574,254.858 95.363,257.060 90.940 C 261.033 82.959,268.000 67.829,268.000 67.183 C 268.000 66.824,268.601 65.330,269.335 63.865 C 271.765 59.017,272.000 58.432,272.000 57.238 C 272.000 56.587,272.590 54.692,273.311 53.027 C 275.123 48.842,275.440 48.024,279.287 37.600 C 281.154 32.540,282.978 28.058,283.341 27.640 C 283.703 27.222,284.000 26.326,284.000 25.648 C 284.000 23.524,286.755 17.606,287.746 17.603 C 288.266 17.601,289.379 18.590,290.220 19.800 M192.400 232.892 L 192.400 387.600 161.600 387.600 L 130.800 387.600 129.720 383.600 C 128.673 379.721,128.261 377.737,126.399 367.600 C 125.914 364.960,125.175 362.458,124.758 362.040 C 124.341 361.622,124.000 360.194,124.000 358.867 C 124.000 357.539,123.497 355.001,122.883 353.227 C 122.268 351.452,121.332 348.380,120.802 346.400 C 120.271 344.420,119.154 340.783,118.319 338.318 C 116.274 332.284,116.090 332.821,122.330 326.660 C 127.496 321.560,136.000 309.116,136.000 306.657 C 136.000 306.064,136.339 304.953,136.753 304.189 C 140.437 297.394,142.189 275.483,140.510 257.200 C 137.464 224.030,114.133 201.362,93.637 211.657 C 88.950 214.011,80.975 221.646,78.851 225.813 C 78.126 227.236,76.905 229.480,76.138 230.800 C 74.876 232.972,72.763 237.788,71.224 242.000 C 69.108 247.791,68.571 249.489,68.114 251.835 C 67.436 255.311,66.232 255.237,65.010 251.645 C 63.963 248.569,65.695 233.320,67.282 231.640 C 67.677 231.222,68.000 230.062,68.000 229.062 C 68.000 227.060,71.742 218.617,73.371 216.943 C 73.937 216.361,74.400 215.641,74.401 215.343 C 74.402 215.044,75.341 213.720,76.489 212.400 C 77.637 211.080,79.809 208.508,81.315 206.685 C 82.822 204.861,85.256 202.545,86.726 201.538 C 90.055 199.258,91.324 197.287,92.100 193.200 C 92.433 191.440,93.282 187.300,93.986 184.000 C 94.690 180.700,95.539 176.200,95.873 174.000 C 96.655 168.852,97.587 167.485,102.963 163.600 C 110.700 158.008,132.000 133.936,132.000 130.784 C 132.000 130.565,133.068 128.912,134.373 127.110 C 137.003 123.480,144.000 109.424,144.000 107.772 C 144.000 107.193,144.314 106.378,144.697 105.960 C 145.081 105.542,146.002 103.040,146.744 100.400 C 149.243 91.511,154.213 86.627,163.633 83.805 C 164.495 83.546,167.000 82.654,169.200 81.822 C 176.590 79.028,188.184 76.791,190.800 77.655 C 192.393 78.181,192.400 78.893,192.400 232.892 M212.000 78.006 C 213.980 78.276,216.500 78.785,217.600 79.137 C 218.700 79.489,221.040 80.214,222.800 80.749 C 227.886 82.295,236.284 85.797,237.663 86.947 C 238.358 87.526,239.372 88.000,239.916 88.000 C 242.535 88.000,246.105 92.029,247.160 96.175 C 247.751 98.499,248.772 101.660,249.428 103.200 C 250.085 104.740,250.889 106.720,251.215 107.600 C 251.542 108.480,252.752 111.123,253.905 113.474 C 255.057 115.824,256.000 118.068,256.000 118.460 C 256.000 123.794,282.781 157.061,292.339 163.600 C 298.095 167.538,298.478 168.346,299.934 179.626 C 300.277 182.280,300.972 185.226,301.479 186.173 C 301.985 187.120,302.400 189.202,302.400 190.800 C 302.400 194.876,303.340 196.315,310.915 203.842 C 314.592 207.494,317.600 210.799,317.600 211.184 C 317.600 211.570,318.108 212.393,318.728 213.014 C 322.245 216.530,328.000 228.620,328.000 232.491 C 328.000 233.433,328.540 235.497,329.200 237.077 C 331.056 241.519,330.544 258.918,328.643 255.977 C 327.170 253.697,326.344 251.533,325.910 248.817 C 325.624 247.028,325.077 245.371,324.695 245.135 C 324.313 244.899,324.000 244.074,324.000 243.303 C 324.000 242.532,323.327 240.483,322.505 238.750 C 321.683 237.018,320.351 234.160,319.545 232.400 C 306.971 204.938,280.275 201.401,265.206 225.200 C 262.086 230.127,258.400 237.770,258.400 239.311 C 258.400 240.188,257.968 241.692,257.440 242.653 C 253.115 250.523,253.232 290.921,257.615 303.200 C 259.300 307.920,263.735 316.499,265.399 318.257 C 265.950 318.839,266.400 319.611,266.400 319.974 C 266.400 320.337,269.131 323.312,272.468 326.586 L 278.536 332.537 276.468 338.529 C 275.331 341.824,274.400 345.082,274.400 345.769 C 274.400 346.455,273.862 348.048,273.205 349.309 C 272.548 350.569,272.008 352.749,272.005 354.153 C 272.002 355.557,271.640 356.928,271.200 357.200 C 270.760 357.472,270.400 359.137,270.400 360.900 C 270.400 362.663,269.968 364.892,269.440 365.853 C 268.912 366.814,268.216 369.400,267.895 371.600 C 266.816 378.974,265.492 384.386,264.323 386.200 L 263.163 388.000 232.782 388.000 L 202.400 388.000 202.400 232.867 C 202.400 109.513,202.605 77.649,203.400 77.321 C 203.950 77.095,205.300 77.045,206.400 77.212 C 207.500 77.378,210.020 77.736,212.000 78.006 " stroke="none" fill="#ff6e32" fill-rule="evenodd"></path></g></svg>